<svg id="efAIvPND5s21" xmlns="http://www.w3.org/2000/svg" xmlns:xlink="http://www.w3.org/1999/xlink" viewBox="0 0 500 500" shape-rendering="geometricPrecision" text-rendering="geometricPrecision"><path d="M134.18689,168.91741c13.33631,0,26.16807,3.95994,39.36786,0c3.07669-.92301,5.9948-4.84423,8.94724-3.5789s2.94894,5.79746,3.5789,8.94724c5.15624,25.78122,8.47255,51.50466,16.10503,76.94627c5.92101,19.73669,24.10608,31.87058,32.21007,50.10455c1.23526,2.77934,3.9401,6.79659,1.78945,8.94724-4.81677,4.81677-121.06525,13.14336-125.26136,8.94724-3.98538-3.98538,2.24782-16.35625,3.5789-19.68393c15.47891-38.69728,14.31558-77.02458,14.31558-118.10357" transform="matrix(.67046 0 0 1.249168 268.517191-51.312487)" fill="#3e1804" stroke="#3f5787"/><path d="M386.023955,338.982169c3.85657,6.94182,97.497605,82.992849,105.831925,90.401128c11.16602,9.925351,21.21936,12.922663,29.67969,23.800243c9.24981,11.89261,7.07858,34.14446,9.98752,48.68914c1.40743,7.03716,4.06593,20.14366-1.24844,26.21723-17.07856,19.51835-143.845485,6.994844-121.09863-1.24844c82.67986-29.96254-18.604143-14.589734-28.71411-18.72659-17.76507-7.269217-11.195512-53.640655-.000001-62.732988c37.45318-30.417259-79.012444-94.829656-79.822164-95.639366" transform="translate(36.009579 0.943785)" stroke="#3f5787"/><path d="M396.019377,169.78777c75.624272,51.186019-28.840357,115.1574-33.035607,103.62047-10.79092-29.67504-60.21038-54.17196-77.40325-83.64544-12.08943-20.72474,48.094842-18.393707,3.74532-38.70162-7.123848-3.262053-12.325332-21.498289-3.74532-22.47191c48.094842-5.457583,15.49134-23.32202,22.47191-34.9563c13.19582-21.99302,55.585482-21.817808,53.088602-51.780358-2.693278-32.319323,91.084154-36.584191,91.084154,0c0,29.36544,17.828021,65.57018,55.577554,76.749158c19.506006,5.776421-5.411313,49.562572-9.915813,63.076072-8.68647,26.0594-4.793627,30.564078-30.034257,63.016308-21.72941,27.93782-28.752973-50.932697-34.380113,5.338733-.80178,8.01783-4.00797,40.942393,0,48.156743" transform="matrix(.992508 0 0 0.716486-20.766465 23.267619)" fill="#093e0d" stroke="#3f5787"/><path d="" transform="translate(-3.805139 0)" stroke="#3f5787"/><path d="" transform="translate(-3.805139 0)" stroke="#3f5787"/><path d="M89.825274,188.617026c12.22136-30.553391,16.93875,21.647984,0-8.841756-19.61524-35.30744-69.611122,33.52921-72.659232,0-1.51022-16.61239-11.097606-44.66381-8.739076-61.1735c1.51932-10.63526,29.149254-16.93943,31.210984-26.21725c2.19072-9.85822-13.65449-19.1575-11.23596-32.45943c5.2399-28.81944,80.34412-66.78316,107.36579-58.67665c10.85028,3.25508,36.19474,19.3383,43.69538,28.71411c4.14461,5.18076,4.62927,13.31063,9.98752,17.47815c6.11326,4.75476,15.20302,4.4188,19.97503,11.23595c5.98761,8.55373,4.64591,26.29828,3.74532,36.20474-1.02542,11.27963-12.16386,29.42253-11.23595,38.70162c1.56545,15.65451,19.72718,27.87875,8.73908,46.19226-22.40664,37.34439-54.240014-38.948608-59.966564,29.770052-3.28499,39.41988-43.709866-36.868582-14.939816-11.694782" transform="translate(54.101253 29.212053)" fill="#386326" stroke="#3f5787"/><path d="M186.691863,337.125533c-18.279387,3.323522-55.679807,24.738589-85.893507,71.577921-13.957797,21.638326-13.732068,69.297727-32.063955,86.172308-21.203979,19.518355-45.720202,32.879983-74.442125,33.214148-21.394809.248918-116.051861-42.643708-123.262841-62.473898-13.045323-35.874641,48.494706-39.323491,100.928662-56.912558c23.74771-7.966213,56.64839-8.705052,78.735714-19.683928c18.250167-9.071554,10.170477-39.506677,21.42127-53.263847" transform="translate(65.598596-.000004)" stroke="#3f5787"/><path d="M134.18689,168.91741c13.33631,0,26.16807,3.95994,39.36786,0c3.07669-.92301,5.9948-4.84423,8.94724-3.5789s2.94894,5.79746,3.5789,8.94724c5.15624,25.78122,8.47255,51.50466,16.10503,76.94627c5.92101,19.73669,24.10608,31.87058,32.21007,50.10455c1.23526,2.77934,2.15065,15.175842,0,17.326492-4.81677,4.81677-119.2758,4.764108-123.47191.567988-3.98538-3.98538,2.24782-16.35625,3.5789-19.68393c15.47891-38.69728,14.31558-77.02458,14.31558-118.10357" transform="matrix(.835904 0 0 0.905155 42.000178 54.06068)" fill="#432a1c" stroke="#3f5787"/><path d="" transform="translate(.000007-3.80515)" stroke="#3f5787"/><path d="M209.42572,208.48937c18.79517-16.11015,8.42989,52.28571,0,31.21099-8.77747-21.94369-49.01283-14.08741-53.6829-31.21099-6.92353-25.38627-24.59231-64.79986-14.98127-93.63296c5.68085-17.04254,23.85745-29.46026,32.45943-44.94382c17.16823-30.9028,21.7535-73.7021,66.16729-77.40325c29.97557-2.49797,41.27109,15.64179,64.91885,27.46567c15.29469,7.64735,32.98168,10.33568,47.4407,19.97503c14.4678,9.6452,42.27673,56.46346,31.21099,74.90637-6.49339,10.82232-12.99358,4.50093-21.22347,9.98752-1.86464,1.24309-2.09599,4.03733-2.49688,6.2422-3.01918,16.60551-11.53705,38.55274-27.46567,48.68914-4.00383,2.54789-17.2533,6.35855-19.97503,9.98752-4.36233,5.81644-3.68182,13.66934-9.98752,19.97503-8.64352,8.64352-21.11792,12.13256-24.96879,24.96879-12.79316,42.64387-76.88665-18.906951-37.45318-3.133561" transform="translate(29.793896-7.846948)" fill="#1a7e48" stroke="#3f5787"/><path d="M284.947061,357.827583c-.930338-.930338-8.885068,21.409242-17.89448,48.315097-5.520887,16.487667,14.999279,49.677234,14.315585,50.104545-28.46453,17.79033,43.765709,27.87346,46.525649,55.47289.89757,8.97574,24.962683,28.562203,21.080073,37.298093-2.70864,6.09444-185.65392-7.917993-191.077638-5.088028-46.216095,24.114441-63.531402-3.296965-37.578409-53.683442c8.494459-16.491579,72.480654-55.320668,75.156818-71.577922c4.020557-24.424218-4.196162-39.469404-32.179117-51.922768" transform="translate(56.8158-11.754814)" stroke="#3f5787"/><path d="M134.18689,168.91741c13.33631,0,26.16807,3.95994,39.36786,0c3.07669-.92301,5.9948-4.84423,8.94724-3.5789s2.94894,5.79746,3.5789,8.94724c5.15624,25.78122,8.47255,51.50466,16.10503,76.94627c5.92101,19.73669,24.10608,31.87058,32.21007,50.10455c1.23526,2.77934,3.9401,6.79659,1.78945,8.94724-4.81677,4.81677-121.06525,13.14336-125.26136,8.94724-3.98538-3.98538,2.24782-16.35625,3.5789-19.68393c15.47891-38.69728,14.31558-77.02458,14.31558-118.10357" transform="matrix(.843754 0 0 1.330482 138.232258-62.786377)" fill="#321b12" stroke="#3f5787"/><path d="" transform="translate(24.472066-3.80515)" stroke="#3f5787"/><path d="" transform="translate(-3.805139 0)" stroke="#3f5787"/><path d="" transform="translate(-3.805139 0)" stroke="#3f5787"/></svg>
