<svg id="e4xIro8ABV21" xmlns="http://www.w3.org/2000/svg" xmlns:xlink="http://www.w3.org/1999/xlink" viewBox="0 0 300 300" shape-rendering="geometricPrecision" text-rendering="geometricPrecision" style="background-color:#b3ddec"><path d="M-78.08865,114.20559c0-10.13605-12.91614-11.8659-20.94698-15.51628-1.37275-.62398,7.023996-16.011314,5.957746-14.945055-1.29302,1.293022-15.24838-10.787945-14.4917-9.123235c5.0373,11.08205-12.41303-4.734107-7.758146,27.17155c2.807139,19.240783-3.924704,4.382583-4.654884,6.816503-3.12819,10.427307-46.021796,17.874111,4.406121,37.235011c12.201688,4.684621,38.657739,40.160996,22.498609,11.074555-1.67557-3.01603,7.415055-22.26425,4.654886-24.334381" transform="translate(197.331756-114.702564)" fill="#078329" stroke="#3f5787" stroke-width="0.6"/><path d="M-78.08865,114.20559c0-10.13605-12.91614-11.8659-20.94698-15.51628-1.37275-.62398-2.81282-3.3937-3.87907-2.32744-1.29302,1.29302.01913,3.76599.77581,5.4307c5.0373,11.08205-7.53242-2.82821-13.18884,0-4.86785,2.43393.73018,5.32422,0,7.75814-3.12819,10.42731-19.8254,4.65705-10.8614,24.82605c5.30826,11.94359,44.088444,23.283213,27.929314-5.803227-1.67557-3.01603,23.707146-13.849433,20.946976-15.919563" transform="translate(214.473481-32.981142)" fill="#078329" stroke="#3f5787" stroke-width="0.6"/><path d="M-78.08865,114.20559c0-10.13605-12.91614-11.8659-20.94698-15.51628-1.37275-.62398-2.81282-3.3937-3.87907-2.32744-1.29302,1.29302.01913,3.76599.77581,5.4307c5.0373,11.08205-7.53242-2.82821-13.18884,0-4.86785,2.43393.73018,5.32422,0,7.75814-3.12819,10.42731-19.8254,4.65705-10.8614,24.82605c5.30826,11.94359,67.36286,17.44923,51.20373-11.63721-1.67557-3.01603.43273-8.01545-2.32744-10.08558" transform="matrix(.397951-.985913 0.927309 0.374297 82.115358-97.71178)" fill="#078329" stroke="#3f5787" stroke-width="0.6"/><path d="M-78.08865,114.20559c0-10.13605-12.91614-11.8659-20.94698-15.51628-1.37275-.62398-2.81282-3.3937-3.87907-2.32744-1.29302,1.29302.01913,3.76599.77581,5.4307c5.0373,11.08205-7.53242-2.82821-13.18884,0-4.86785,2.43393.73018,5.32422,0,7.75814-3.12819,10.42731-19.8254,4.65705-10.8614,24.82605c5.30826,11.94359,67.36286,17.44923,51.20373-11.63721-1.67557-3.01603.43273-8.01545-2.32744-10.08558" transform="matrix(.397951-.985913 0.927309 0.374297-23.870654-40.939094)" fill="#078329" stroke="#3f5787" stroke-width="0.6"/><path d="M-78.08865,114.20559c0-10.13605-.059076-44.240696-20.94698-15.51628-.886838,1.219553-2.81282-3.3937-3.87907-2.32744-1.29302,1.29302,1.731246,6.989852.77581,5.4307-20.419566-33.322162,1.785798,20.946981-13.18884,0-3.165095-4.427432.73018,5.32422,0,7.75814-3.12819,10.42731-5.050488,22.940071,3.913512,43.109071c5.30826,11.94359,23.617477-18.283021,36.428818-29.920231c2.55389-2.319832,17.251879-25.754857,14.491711-27.824987" transform="matrix(-.901738-.432283 0.432283-.901738 142.076239 121.686015)" fill="#078329" stroke="#3f5787" stroke-width="0.6"/><path d="M-78.08865,114.20559c0-10.13605-12.91614-11.8659-20.94698-15.51628-1.37275-.62398,7.023996-16.011314,5.957746-14.945055-1.29302,1.293022-15.24838-10.787945-14.4917-9.123235c5.0373,11.08205-12.41303-4.734107-7.758146,27.17155c2.807139,19.240783-3.924704,4.382583-4.654884,6.816503-3.12819,10.427307-46.021796,17.874111,4.406121,37.235011c12.201688,4.684621,38.657739,40.160996,22.498609,11.074555-1.67557-3.01603,7.415055-22.26425,4.654886-24.334381" transform="matrix(.891993-.45205 0.45205 0.891993 260.866389-138.659449)" fill="#078329" stroke="#3f5787" stroke-width="0.6"/><path d="M0,0.950854l16.301904-1.413546-.000001,4.358019L0,3.304903v-2.354049Z" transform="matrix(-1.027698-.542829 0.717057-1.357552 181.74511 84.180511)" fill="#a64f24" stroke-width="0"/><path d="M0,0.950854l16.301904-1.413546-.000001,4.358019L0,3.304903v-2.354049Z" transform="matrix(-1.027698-.542829 0.717057-1.357552 128.414748 80.081218)" fill="#873208" stroke-width="0"/><path d="M0,2.111511l17.599033-.856353-.000001,2.640169L0,3.537637v-1.426126Z" transform="matrix(-1.160578-.06234 0.082349-1.533081 65.001492 75.454941)" fill="#873208" stroke-width="0"/><path d="M8.96325,123.99188c-4.5699,0-11.878498-17.488048-7.1212-14.47213c6.878185,4.360467,21.198741,18.083435,6.43206,14.70184" transform="matrix(1.131667 0 0 0.822897 113.411163-3.919702)" fill="#0e9702" stroke="#3f5787" stroke-width="0.6"/><path d="M0,0h13.9846l6.130974,224.497921h-26.773028L0,0Z" transform="translate(246.725621 0.638424)" fill="#d2dbed" stroke-width="0"/><path d="M-0.999863,-6.994744h14.211532l6.903905,231.492665h-26.773028L-0.999863,-6.994744Z" transform="translate(246.725621 0.87979)" fill="#531c00" stroke-width="0"/><path d="M0,0h20.102861l6.233742,197.40276h-34.716505L0,0Z" transform="matrix(.465288 0 0 1.010306 183.747458-.542766)" fill="#5a301b" stroke-width="0"/><path d="M-1.283521,-7.710001h20.291565l7.720988,211.389803-32.774555.715257l4.762002-212.10506Z" transform="matrix(.619304 0 0 1 127.302488 1.799124)" fill="#532914" stroke-width="0"/><path d="M2.253491,2.478931l8.973907-.405337l2.43181,192.352014h-15.138184L2.253491,2.478931Z" transform="translate(155.7683-2.61636)" fill="#873208" stroke-width="0"/><path d="M2.253491,2.478931L11.227398,3.49615l2.074855,198.419975h-15.592767L2.253491,2.478931Z" transform="translate(103.921966-21.677008)" fill="#773717" stroke-width="0"/><path d="M2.253491,2.478931L11.227398,3.49615l2.074855,198.419975h-15.592767L2.253491,2.478931Z" transform="translate(215.585653-16.079025)" fill="#783615" stroke-width="0"/><path d="M1.25592,-21.635162h9.524784l2.521549,223.551287h-15.592767c.944604-75.109793,1.23896-190.382809,3.546434-223.551287Z" transform="translate(34.85785 15.520208)" fill="#873208" stroke-width="0"/><rect width="22.724974" height="230.616183" rx="0" ry="0" transform="matrix(1.053297 0 0 1.044939 61.724475 0.494569)" fill="#391803" stroke-width="0"/><path d="M154.50752,191.80925h14.91999l-8.18727,144.1464h-27.92892l21.1962-144.1464Z" fill="#4e4e4e" stroke-width="0"/><path d="M1.466538,-0.141741h22.556434C25.32917,2.623569,15.909659,50.56778,10.785741,95.60494h-85.63968L1.466538,-0.141741Z" transform="matrix(.691278 0 0 1.862988 100.617667 180.850863)" fill="#4e4e4e" stroke-width="0"/><path d="M0.177232,-0.80824h23.909763l16.50437,102.388264h-57.00064L0.177232,-0.80824Z" transform="matrix(.675589 0 0 1 179.728654 199.702666)" fill="#4e4e4e" stroke-width="0"/><path d="M-0.389602,0.595823h23.607888L-5.328517,74.895883l-39.794162-.956027L-0.389602,0.595823Z" transform="translate(61.772407 240.246649)" fill="#4e4e4e" stroke-width="0"/><path d="M3.447983,0h15.592767L-8.995088,87.999496l-71.96604,7.670182L3.447983,0Z" transform="translate(29.119353 217.436333)" fill="#4e4e4e" stroke-width="0"/><path d="M-2.158547,-0.355488h26.522953L59.099748,75.502078l-46.545367,4.55604L-2.158547,-0.355488Z" transform="matrix(1.016955 0 0 1 242.164573 225.733199)" fill="#4e4e4e" stroke-width="0"/><path d="M-0.832133,0h15.600935l28.04784,115.357716-29.298717,4.55604L-0.832133,0Z" transform="matrix(.999999 0 0 1 214.12727 185.522073)" fill="#4e4e4e" stroke-width="0"/><path d="M8.96325,123.99188c-4.5699,0-11.878498-17.488048-7.1212-14.47213c6.878185,4.360467,21.198741,18.083435,6.43206,14.70184" transform="matrix(1.131667 0 0 0.822897 167.686394-13.753432)" fill="#0e9702" stroke="#3f5787" stroke-width="0.6"/><path d="M8.96325,123.99188c-4.5699,0-11.878498-17.488048-7.1212-14.47213c6.878185,4.360467,21.198741,18.083435,6.43206,14.70184" transform="matrix(-.604754 0 0 0.58236 201.995977-28.114861)" fill="#0e9702" stroke="#3f5787" stroke-width="0.6"/><path d="M8.96325,123.99188c-4.5699,0-11.878498-17.488048-7.1212-14.47213c6.878185,4.360467,21.198741,18.083435,6.43206,14.70184" transform="matrix(.565043 0 0 1.010521 208.251937-57.602388)" fill="#0e9702" stroke="#3f5787" stroke-width="0.6"/><path d="M8.96325,123.99188c-4.5699,0-11.783858-17.632396-7.1212-14.47213c7.396389,5.01314,21.4525,14.70184,6.43206,14.70184" transform="matrix(1.101806 0.258252-.187789 0.801183 29.981427-1.778539)" fill="#0e9702" stroke="#3f5787" stroke-width="0.6"/><path d="M8.96325,123.99188c-4.5699,0-11.783858-17.632396-7.1212-14.47213c7.396389,5.01314,21.4525,14.70184,6.43206,14.70184" transform="matrix(.57028-.977472 0.710773 0.414682-67.662791 65.950248)" fill="#0e9702" stroke="#3f5787" stroke-width="0.6"/><path d="M8.96325,123.99188c-4.5699,0-11.783858-17.632396-7.1212-14.47213c7.396389,5.01314,21.4525,14.70184,6.43206,14.70184" transform="matrix(-.404041 1.057081-.768662-.293801 152.730757 90.470469)" fill="#0e9702" stroke="#3f5787" stroke-width="0.6"/><path d="M8.96325,123.99188c-4.5699,0-10.72719-10.14495-7.1212-14.47213c4.79595-5.75514,21.4525,14.70184,6.43206,14.70184" transform="matrix(.921197 0 0 0.422767 84.007682 37.94919)" fill="#0e9702" stroke="#3f5787" stroke-width="0.6"/><path d="M8.96325,123.99188c-15.08399-12.433122-10.72719-10.14495-7.1212-14.47213c4.79595-5.75514,21.4525,14.70184,6.43206,14.70184" transform="matrix(.921197 0 0 0.422767 231.909847 49.394154)" fill="#0e9702" stroke="#3f5787" stroke-width="0.6"/><path d="M8.96325,123.99188c-4.5699,0-11.458873-15.641473-7.1212-14.47213c7.233291,1.949939,21.4525,14.70184,6.43206,14.70184" transform="matrix(.691105 0.60908-.279526 0.31717 268.433886 51.40504)" fill="#0e9702" stroke="#3f5787" stroke-width="0.6"/><path d="M8.96325,123.99188c-4.5699,0-10.72719-10.14495-7.1212-14.47213c4.79595-5.75514,21.4525,14.70184,6.43206,14.70184" transform="matrix(.812774-.433593 0.19899 0.373008 122.549306 30.813955)" fill="#0e9702" stroke="#3f5787" stroke-width="0.6"/><path d="M8.96325,123.99188c-4.5699,0,1.111104,13.657292-13.926884-5.005262-5.562851-6.90365,28.947322,2.297816,13.926882,2.297816" transform="matrix(-.730227 0 0 0.483972 268.216428 39.25277)" fill="#0e9702" stroke="#3f5787" stroke-width="0.6"/><path d="M8.96325,123.99188c-3.996794-.000001-10.72719-10.14495-7.1212-14.47213c4.79595-5.75514,31.328573,33.287126,10.3684,16.556489" transform="matrix(.513364 0 0 0.479702 268.408613 5.228769)" fill="#0e9702" stroke="#3f5787" stroke-width="0.6"/><path d="M9.189035,127.659738c-4.5699,0-13.978793-21.102937-7.346985-18.139988c6.839892,3.055917,21.4525,14.70184,6.43206,14.70184" transform="matrix(-.376994 0.840523-.385743-.173015 313.749644 93.449209)" fill="#0e9702" stroke="#3f5787" stroke-width="0.6"/><path d="M8.96325,123.99188c-16.017151-12.668829-12.733638-13.994437-7.1212-14.47213c11.909855-1.013686,21.4525,14.70184,6.43206,14.70184" transform="matrix(-.083579-.428638 0.679771-.132547 40.855869 29.681122)" fill="#0e9702" stroke="#3f5787" stroke-width="0.6"/><path d="M8.96325,123.99188c-16.017151-12.668829-12.733638-13.994437-7.1212-14.47213c11.909855-1.013686,21.4525,14.70184,6.43206,14.70184" transform="matrix(-.083579-.428638 0.679771-.132547 63.39464 40.951937)" fill="#0e9702" stroke="#3f5787" stroke-width="0.6"/><path d="M8.96325,123.99188c-4.5699,0-10.72719-10.14495-7.1212-14.47213c4.79595-5.75514,21.4525,14.70184,6.43206,14.70184" transform="matrix(.24433-.361965 0.574035 0.38748 76.849573 40.632039)" fill="#0e9702" stroke="#3f5787" stroke-width="0.6"/><path d="M7.1191,124.410389c-1.726087-6.138686-10.864985-15.599607-5.27705-14.890639c6.780025.860214,16.725257,3.642792,9.596134,12.568373" transform="matrix(-.330186 0.697133-.432006-.204613 282.820407 73.385294)" fill="#0e9702" stroke="#3f5787" stroke-width="0.6"/><path d="M7.1191,124.410389c-1.726087-6.138686-10.864985-15.599607-5.27705-14.890639c6.780025.860214,16.725257,3.642792,9.596134,12.568373" transform="matrix(-.330186 0.697133-.432006-.204613 223.259254 72.952224)" fill="#0e9702" stroke="#3f5787" stroke-width="0.6"/><path d="M7.1191,124.410389c-1.726087-6.138686-10.864985-15.599607-5.27705-14.890639c6.780025.860214,16.725257,3.642792,9.596134,12.568373" transform="matrix(-.330186 0.697133-.34115-.16158 315.930045 66.41938)" fill="#0e9702" stroke="#3f5787" stroke-width="0.6"/><path d="M8.96325,123.99188c-4.5699,0-8.767585-15.667909-7.1212-14.47213c6.061445,4.402463,21.4525,14.70184,6.43206,14.70184" transform="matrix(.425855 0.096764-.153457 0.675358 115.19786-76.164934)" fill="#0e9702" stroke="#3f5787" stroke-width="0.6"/><path d="M8.96325,123.99188c-4.5699,0-8.767585-15.667909-7.1212-14.47213c6.061445,4.402463,21.4525,14.70184,6.43206,14.70184" transform="matrix(.351615-.259003 0.410749 0.557622-18.267922-58.862193)" fill="#0e9702" stroke="#3f5787" stroke-width="0.6"/><path d="M8.96325,123.99188c-14.817039,1.651022-3.549229-8.084159-2.844369-13.672613.894391-7.091142,17.175669,13.902323,2.155229,13.902323" transform="matrix(.184326-.377399 0.797384 0.389452 4.980441-27.094724)" fill="#0e9702" stroke="#3f5787" stroke-width="0.6"/><path d="M8.96325,123.99188c-14.817039,1.651022-3.549229-8.084159-2.844369-13.672613.894391-7.091142,17.175669,13.902323,2.155229,13.902323" transform="matrix(.159561 0.388518 0.820877-.337126-79.407655 77.665757)" fill="#0e9702" stroke="#3f5787" stroke-width="0.6"/><path d="M0,0.950854l16.301904-1.413546-.000001,4.358019L0,3.304903v-2.354049Z" transform="matrix(-1.154243-.573377-.503308 1.013189 212.246684 70.846406)" fill="#5a301b" stroke-width="0"/><path d="M0,0.950854l16.301904-1.413546-.000001,4.358019L0,3.304903v-2.354049Z" transform="matrix(-1.154243-.573377-.503308 1.013189 151.984833 48.552365)" fill="#5a301b" stroke-width="0"/><path d="M7.71865,1.543455l8.583254-2.006147-.000001,4.358019L0,3.304903L7.71865,1.543455Z" transform="matrix(1.027698 0.542829 0.717057-1.357552 165.559897 114.919487)" fill="#5a301b" stroke-width="0"/><path d="M0,0.950854l16.301904-1.413546-.000001,4.358019L0,3.304903v-2.354049Z" transform="matrix(1.027698 0.542829 0.717057-1.357552 91.327525 9.148323)" fill="#873208" stroke-width="0"/><path d="M0.99912,2.151923l15.302784-.836952-.000001,2.580356L0.99912,3.545741v-1.393818Z" transform="matrix(1.027698 0.542829 0.717057-1.357552 18.922606 39.555526)" fill="#873208" stroke-width="0"/><path d="M9.953003,2.246369l6.348901-2.709061-.000001,4.358019L0,3.304903L9.953003,2.246369Z" transform="matrix(1.160578 0.06234 0.082349-1.533081 141.636294 36.392915)" fill="#873208" stroke-width="0"/><path d="M9.953003,2.246369l6.348901-2.709061-.000001,4.358019L0,3.304903L9.953003,2.246369Z" transform="matrix(1.160578 0.06234 0.082349-1.533081 138.28621 106.419014)" fill="#873208" stroke-width="0"/><path d="M0,2.152293l15.636703-.836774-.000001,2.579808L0,3.545815v-1.393522Z" transform="matrix(1.160578 0.06234 0.082349-1.533081 47.640211 43.07411)" fill="#391803" stroke-width="0"/><path d="M-1.111455,3.121585L15.636703,1.315519l-.000001,2.579808-6.942507.924719-9.80565-1.698461Z" transform="matrix(1.160578 0.06234 0.082349-1.533081 50.285373 87.714866)" fill="#391803" stroke-width="0"/><path d="M0,0.950854l16.301904-1.413546-.000001,4.358019L0,3.304903v-2.354049Z" transform="matrix(1.160578 0.06234 0.082349-1.533081 87.117723 45.639727)" fill="#873208" stroke-width="0"/><path d="M0,0.950854l16.301904-1.413546-.000001,4.358019L0,3.304903v-2.354049Z" transform="matrix(1.160578 0.06234 0.082349-1.533081 201.314198 44.016271)" fill="#783615" stroke-width="0"/><path d="M0,0.950854l16.301904-1.413546-.000001,4.358019L0,3.304903v-2.354049Z" transform="matrix(1.160578 0.06234 0.082349-1.533081 115.048589 30.615193)" fill="#532914" stroke-width="0"/><path d="M8.96325,123.99188c-14.817039,1.651022-3.549229-8.084159-2.844369-13.672613.894391-7.091142,17.175669,13.902323,2.155229,13.902323" transform="matrix(.184326-.377399 0.797384 0.389452 26.361739 3.341619)" fill="#0e9702" stroke="#3f5787" stroke-width="0.6"/><path d="M8.96325,123.99188c-14.817039,1.651022-3.549229-8.084159-2.844369-13.672613.894391-7.091142,17.175669,13.902323,2.155229,13.902323" transform="matrix(.184326-.377399 0.797384 0.389452 4.098401 16.909371)" fill="#0e9702" stroke="#3f5787" stroke-width="0.6"/><path d="M8.96325,123.99188c-14.817039,1.651022-3.549229-8.084159-2.844369-13.672613.894391-7.091142,17.175669,13.902323,2.155229,13.902323" transform="matrix(.184326-.377399 0.797384 0.389452-39.478216-18.016964)" fill="#0e9702" stroke="#3f5787" stroke-width="0.6"/><path d="M8.96325,123.99188c-4.5699,0-8.767585-15.667909-7.1212-14.47213c6.061445,4.402463,23.228192,13.730307,6.43206,14.70184" transform="matrix(.105563-.423759 0.672035 0.167411-21.913456 13.567243)" fill="#0e9702" stroke="#3f5787" stroke-width="0.6"/><path d="M8.96325,123.99188c-16.017151-12.668829-12.733638-13.994437-7.1212-14.47213c11.909855-1.013686,21.4525,14.70184,6.43206,14.70184" transform="matrix(-.083579-.428638 0.679771-.132547 10.712741 52.398304)" fill="#0e9702" stroke="#3f5787" stroke-width="0.6"/><path d="M8.96325,123.99188c-16.017151-12.668829-12.733638-13.994437-7.1212-14.47213c11.909855-1.013686,21.4525,14.70184,6.43206,14.70184" transform="matrix(-.083579-.428638 0.679771-.132547-28.40422 28.687448)" fill="#0e9702" stroke="#3f5787" stroke-width="0.6"/><path d="M8.96325,123.99188c-4.5699,0-11.789278-15.813593-7.1212-14.47213c7.200113,2.069093,21.4525,14.70184,6.43206,14.70184" transform="matrix(.237394-.174866 0.251846 0.3419 123.96714-26.146613)" fill="#0e9702" stroke="#3f5787" stroke-width="0.6"/><path d="M13.123355,115.093113c-4.5699,0,13.335059,1.501788,15.771004-3.576978c6.299301-13.133579-14.595318-7.721058-31.111727-.378849" transform="matrix(-.180955 0.13489-.198478-.266259 193.539165 32.811619)" fill="#0e9702" stroke="#3f5787" stroke-width="0.6"/><path d="M13.123355,115.093113c-4.5699,0,13.335059,1.501788,15.771004-3.576978c6.299301-13.133579-14.595318-7.721058-31.111727-.378849" transform="matrix(-.180955 0.13489-.198478-.266259 220.285702 35.443077)" fill="#0e9702" stroke="#3f5787" stroke-width="0.6"/><path d="M13.123355,115.093113c-4.5699,0,13.335059,1.501788,15.771004-3.576978c6.299301-13.133579-14.595318-7.721058-31.111727-.378849" transform="matrix(-.180955 0.13489-.198478-.266259 123.307567 66.325236)" fill="#0e9702" stroke="#3f5787" stroke-width="0.6"/><path d="M13.123355,115.093113c-4.5699,0,13.335059,1.501788,15.771004-3.576978c6.299301-13.133579-14.595318-7.721058-31.111727-.378849" transform="matrix(-.180955 0.13489-.198478-.266259 254.213229 32.457132)" fill="#0e9702" stroke="#3f5787" stroke-width="0.6"/><path d="M13.123355,115.093113c-4.5699,0,13.335059,1.501788,15.771004-3.576978c6.299301-13.133579-14.595318-7.721058-31.111727-.378849" transform="matrix(-.180955 0.13489-.198478-.266259 287.240539 34.512301)" fill="#0e9702" stroke="#3f5787" stroke-width="0.6"/><path d="M2.255246,2.339303l14.046658-2.801995-.000001,4.358019L0,3.304903l2.255246-.9656Z" transform="matrix(-.963626 0.649809-.858374-1.272915 180.911005 28.873368)" fill="#873208" stroke-width="0"/><path d="M13.123355,115.093113c-4.5699,0,13.335059,1.501788,15.771004-3.576978c6.299301-13.133579-14.595318-7.721058-31.111727-.378849" transform="matrix(.204827 0.094795-.139482 0.301383 193.695632-17.98909)" fill="#0e9702" stroke="#3f5787" stroke-width="0.6"/><path d="M13.123355,115.093113c-4.5699,0,13.335059,1.501788,15.771004-3.576978c6.299301-13.133579-14.595318-7.721058-31.111727-.378849" transform="matrix(.204827 0.094795-.139482 0.301383 70.562239-30.664586)" fill="#0e9702" stroke="#3f5787" stroke-width="0.6"/><path d="M13.123355,115.093113c-4.5699,0,13.335059,1.501788,15.771004-3.576978c6.299301-13.133579-14.595318-7.721058-31.111727-.378849" transform="matrix(.204827 0.094795-.139482 0.301383 227.451623-20.006162)" fill="#0e9702" stroke="#3f5787" stroke-width="0.6"/><path d="M13.123355,115.093113c-4.5699,0,13.335059,1.501788,15.771004-3.576978c6.299301-13.133579-14.595318-7.721058-31.111727-.378849" transform="matrix(.21902-.054501 0.080193 0.322267 231.386094-18.206742)" fill="#0e9702" stroke="#3f5787" stroke-width="0.6"/><path d="M13.123355,115.093113c-4.5699,0,13.335059,1.501788,15.771004-3.576978c6.299301-13.133579-14.595318-7.721058-31.111727-.378849" transform="matrix(.204827 0.094795-.139482 0.301383 254.868302-22.827015)" fill="#0e9702" stroke="#3f5787" stroke-width="0.6"/><path d="M13.123355,115.093113c-4.5699,0,13.335059,1.501788,15.771004-3.576978c6.299301-13.133579-14.595318-7.721058-31.111727-.378849" transform="matrix(.204827 0.094795-.139482 0.301383 192.913526-11.108864)" fill="#0e9702" stroke="#3f5787" stroke-width="0.6"/><path d="M-0.46826,0h21.482478L10.785741,95.60494h-37.574172L-0.46826,0Z" transform="matrix(.945017 0 0 1 123.997091 205.274849)" fill="#4e4e4e" stroke-width="0"/><path d="M0,0.950854l16.301904-1.413546-.000001,4.358019L0,3.304903v-2.354049Z" transform="matrix(1.162251 0 0 1.535291 15.399912 97.812116)" fill="#873208" stroke-width="0"/><path d="M7.1191,124.410389c-1.726087-6.138686-10.864985-15.599607-5.27705-14.890639c6.780025.860214,16.725257,3.642792,9.596134,12.568373" transform="matrix(.534349-.051284 0.046973 0.489426 157.815813 52.762463)" fill="#0e9702" stroke="#3f5787" stroke-width="0.6"/><path d="M8.96325,123.99188c-14.817039,1.651022-3.549229-8.084159-2.844369-13.672613.894391-7.091142,17.175669,13.902323,2.155229,13.902323" transform="matrix(.180067-.368678 0.783362 0.382603-71.705703-9.157093)" fill="#0e9702" stroke="#3f5787" stroke-width="0.6"/><path d="M8.96325,123.99188c-4.5699,0-11.878498-17.488048-7.1212-14.47213c6.878185,4.360467,21.198741,18.083435,6.43206,14.70184" transform="matrix(-.604754 0 0 0.58236 210.051676-5.784103)" fill="#0e9702" stroke="#3f5787" stroke-width="0.6"/><path d="M-0.406805,-0.436873l18.719122-1.441809-2.010414,5.774009L0,3.304903l-.406805-3.741776Z" transform="matrix(-.963626 0.649809-.858374-1.272915 275.455379 57.099295)" fill="#531c00" stroke-width="0"/><path d="M-4.080174,-3.441922c6.667113,2.028947,22.380463,6.378708,20.575067,5.694548l4.993051,4.848601L5.622316,3.921149l-9.70249-7.363071Z" transform="matrix(.989777 0.609237-.80478 1.307459 232.55454 23.205949)" fill="#531c00" stroke-width="0"/><path d="M-78.08865,114.20559c0-10.13605-12.91614-11.8659-20.94698-15.51628-1.37275-.62398-2.81282-3.3937-3.87907-2.32744-1.29302,1.29302.01913,3.76599.77581,5.4307c5.0373,11.08205-7.53242-2.82821-13.18884,0-4.86785,2.43393.73018,5.32422,0,7.75814-3.12819,10.42731-19.8254,4.65705-10.8614,24.82605c5.30826,11.94359,67.36286,17.44923,51.20373-11.63721-1.67557-3.01603.43273-8.01545-2.32744-10.08558" transform="translate(111.965997-85.228646)" fill="#078329" stroke="#3f5787" stroke-width="0.6"/></svg>
